<!-- All credits to Mariya-Laurel Ivakhnenko that created this SVG -->
<?xml version="1.0" encoding="UTF-8" standalone="no"?>
<!DOCTYPE svg PUBLIC "-//W3C//DTD SVG 1.1//EN" "http://www.w3.org/Graphics/SVG/1.1/DTD/svg11.dtd">
<!-- Created with Vectornator (http://vectornator.io/) -->
<svg height="100%" stroke-miterlimit="10" style="fill-rule:nonzero;clip-rule:evenodd;stroke-linecap:round;stroke-linejoin:round;" version="1.1" viewBox="0 0 841.995 595.35" width="100%" xml:space="preserve" xmlns="http://www.w3.org/2000/svg" xmlns:xlink="http://www.w3.org/1999/xlink">
<defs>
<filter color-interpolation-filters="sRGB" filterUnits="userSpaceOnUse" height="87.9768" id="Filter" width="1.29865" x="405.379" y="349.513">
<feGaussianBlur in="SourceGraphic" result="Blur" stdDeviation="0.00699373"/>
</filter>
<filter color-interpolation-filters="sRGB" filterUnits="userSpaceOnUse" height="62.5894" id="Filter_2" width="62.5894" x="374.733" y="362.207">
<feGaussianBlur in="SourceGraphic" result="Blur" stdDeviation="0.00699373"/>
</filter>
<filter color-interpolation-filters="sRGB" filterUnits="userSpaceOnUse" height="81.3299" id="Filter_3" width="34.5869" x="388.735" y="352.837">
<feGaussianBlur in="SourceGraphic" result="Blur" stdDeviation="0.00699373"/>
</filter>
<filter color-interpolation-filters="sRGB" filterUnits="userSpaceOnUse" height="81.3299" id="Filter_4" width="34.5869" x="388.735" y="352.837">
<feGaussianBlur in="SourceGraphic" result="Blur" stdDeviation="0.00699373"/>
</filter>
<filter color-interpolation-filters="sRGB" filterUnits="userSpaceOnUse" height="34.3509" id="Filter_5" width="81.4277" x="365.314" y="376.326">
<feGaussianBlur in="SourceGraphic" result="Blur" stdDeviation="0.00699373"/>
</filter>
<filter color-interpolation-filters="sRGB" filterUnits="userSpaceOnUse" height="34.3509" id="Filter_6" width="81.4277" x="365.314" y="376.326">
<feGaussianBlur in="SourceGraphic" result="Blur" stdDeviation="0.00699373"/>
</filter>
<filter color-interpolation-filters="sRGB" filterUnits="userSpaceOnUse" height="62.5894" id="Filter_7" width="62.5894" x="374.733" y="362.207">
<feGaussianBlur in="SourceGraphic" result="Blur" stdDeviation="0.00699373"/>
</filter>
<filter color-interpolation-filters="sRGB" filterUnits="userSpaceOnUse" height="1.29865" id="Filter_8" width="92.7279" x="362.04" y="392.852">
<feGaussianBlur in="SourceGraphic" result="Blur" stdDeviation="0.00699373"/>
</filter>
<filter color-interpolation-filters="sRGB" filterUnits="userSpaceOnUse" height="28.4242" id="Filter_9" width="36.7914" x="387.972" y="378.592">
<feGaussianBlur in="SourceGraphic" result="Blur" stdDeviation="0.0310563"/>
</filter>
</defs>
<g id="Calque-1"/>
<g id="Calque-1-copier">
<g opacity="1">
<path d="M280.998 77.5436L560.998 77.5436L560.998 497.544L280.998 497.544L280.998 77.5436Z" fill="#f1d244" fill-rule="nonzero" opacity="1" stroke="none"/>
<path d="M280.998 77.5436L560.998 77.5436L560.998 497.544L280.998 497.544L280.998 77.5436Z" fill="none" opacity="1" stroke="#000000" stroke-linecap="butt" stroke-linejoin="round" stroke-width="10"/>
</g>
<path d="M549.987 365.556C543.629 368.225 520.388 419.808 480.893 424.431C441.398 429.055 420.994 407.933 390.206 400.306C359.417 392.68 319.524 391.074 291.987 426.931L291.987 486.556L549.987 486.556L549.987 365.556Z" fill="#000000" fill-rule="nonzero" opacity="1" stroke="none"/>
<path d="M291.987 88.5561L549.987 88.5561L549.987 486.556L291.987 486.556L291.987 88.5561Z" fill="#000000" fill-rule="nonzero" opacity="1" stroke="none"/>
<path d="M513.57 212.728C513.57 224.727 511.818 235.329 508.313 244.536C504.809 253.743 499.849 261.732 493.434 268.503C487.019 275.275 479.327 281.334 470.358 286.679C461.389 292.025 451.261 296.896 439.975 301.291L439.975 341.92L377.25 341.92L377.25 281.868C385.685 279.611 393.318 277.294 400.149 274.919C406.979 272.543 414.137 268.682 421.621 263.336C428.63 258.584 434.125 253.06 438.104 246.764C442.084 240.467 444.074 233.339 444.074 225.38C444.074 213.5 440.243 205.036 432.58 199.987C424.918 194.938 414.137 192.414 400.238 192.414C391.684 192.414 382.032 194.255 371.281 197.938C360.53 201.621 350.699 206.373 341.789 212.194L334.662 212.194L334.662 157.844C342.265 154.636 353.966 151.28 369.766 147.776C385.566 144.271 401.604 142.519 417.879 142.519C447.222 142.519 470.506 148.993 487.732 161.942C504.957 174.891 513.57 191.82 513.57 212.728ZM444.965 413.198L372.974 413.198L372.974 366.155L444.965 366.155L444.965 413.198Z" fill="#ffffff" opacity="1" stroke="none"/>
<g opacity="1">
<g opacity="1">
<path d="M356.964 393.501C356.964 366.404 378.931 344.437 406.028 344.437C433.126 344.437 455.092 366.404 455.092 393.501C455.092 420.599 433.126 442.566 406.028 442.566C378.931 442.566 356.964 420.599 356.964 393.501Z" fill="#ffffff" fill-rule="nonzero" opacity="1" stroke="none"/>
<g opacity="1">
<path d="M406.028 436.841L406.028 350.162" fill="none" filter="url(#Filter)" opacity="1" stroke="#fddf19" stroke-linecap="butt" stroke-linejoin="round" stroke-width="1.26368"/>
<path d="M375.383 362.856L436.674 424.147" fill="none" filter="url(#Filter_2)" opacity="1" stroke="#fddf19" stroke-linecap="butt" stroke-linejoin="round" stroke-width="1.26368"/>
<path d="M389.384 433.517L422.672 353.486" fill="none" filter="url(#Filter_3)" opacity="1" stroke="#fddf19" stroke-linecap="butt" stroke-linejoin="round" stroke-width="1.26368"/>
<path d="M422.672 433.517L389.384 353.486" fill="none" filter="url(#Filter_4)" opacity="1" stroke="#fddf19" stroke-linecap="butt" stroke-linejoin="round" stroke-width="1.26368"/>
<path d="M365.964 410.028L446.093 376.975" fill="none" filter="url(#Filter_5)" opacity="1" stroke="#fddf19" stroke-linecap="butt" stroke-linejoin="round" stroke-width="1.26368"/>
<path d="M446.093 410.028L365.964 376.975" fill="none" filter="url(#Filter_6)" opacity="1" stroke="#fddf19" stroke-linecap="butt" stroke-linejoin="round" stroke-width="1.26368"/>
<path d="M375.383 424.147L436.674 362.856" fill="none" filter="url(#Filter_7)" opacity="1" stroke="#fddf19" stroke-linecap="butt" stroke-linejoin="round" stroke-width="1.26368"/>
<path d="M362.689 393.501L454.118 393.501" fill="none" filter="url(#Filter_8)" opacity="1" stroke="#fddf19" stroke-linecap="butt" stroke-linejoin="round" stroke-width="1.26368"/>
</g>
<path d="M361.258 393.501C361.258 368.775 381.302 348.731 406.028 348.731C430.754 348.731 450.799 368.775 450.799 393.501C450.799 418.227 430.754 438.272 406.028 438.272C381.302 438.272 361.258 418.227 361.258 393.501Z" fill="none" opacity="0.999922" stroke="#fddf19" stroke-linecap="butt" stroke-linejoin="round" stroke-width="5.31463"/>
</g>
<path d="M373.348 393.501C373.348 375.453 387.979 360.821 406.028 360.821C424.077 360.821 438.709 375.453 438.709 393.501C438.709 411.55 424.077 426.182 406.028 426.182C387.979 426.182 373.348 411.55 373.348 393.501Z" fill="#fddf19" fill-rule="nonzero" opacity="0" stroke="none"/>
<g fill="#000000" filter="url(#Filter_9)" opacity="1" stroke="none">
<path d="M392.723 385.148L388.05 385.148L388.05 378.669L389.72 378.669L389.72 383.895L392.723 383.895L392.723 385.148Z"/>
<path d="M398.453 382.994L394.868 382.994C394.891 383.377 395.037 383.67 395.305 383.873C395.573 384.076 395.968 384.178 396.491 384.178C396.821 384.178 397.142 384.118 397.452 383.999C397.763 383.88 398.008 383.753 398.188 383.616L398.362 383.616L398.362 384.874C398.008 385.016 397.674 385.119 397.361 385.183C397.048 385.247 396.701 385.278 396.321 385.278C395.34 385.278 394.589 385.058 394.067 384.617C393.545 384.176 393.284 383.548 393.284 382.733C393.284 381.927 393.531 381.288 394.026 380.816C394.52 380.345 395.198 380.109 396.06 380.109C396.855 380.109 397.452 380.31 397.852 380.712C398.253 381.114 398.453 381.692 398.453 382.446L398.453 382.994ZM396.895 382.076C396.887 381.748 396.805 381.502 396.652 381.336C396.498 381.171 396.259 381.088 395.934 381.088C395.632 381.088 395.384 381.167 395.19 381.323C394.995 381.48 394.887 381.731 394.863 382.076L396.895 382.076Z"/>
<path d="M407.76 379.922L405.737 379.922L405.737 385.148L404.066 385.148L404.066 379.922L402.043 379.922L402.043 378.669L407.76 378.669L407.76 379.922Z"/>
<path d="M413.673 382.707C413.673 383.51 413.439 384.144 412.97 384.606C412.502 385.069 411.844 385.3 410.997 385.3C410.15 385.3 409.492 385.069 409.024 384.606C408.555 384.144 408.321 383.51 408.321 382.707C408.321 381.898 408.557 381.262 409.028 380.801C409.5 380.34 410.156 380.109 410.997 380.109C411.85 380.109 412.509 380.341 412.975 380.806C413.44 381.27 413.673 381.903 413.673 382.707ZM411.745 383.895C411.847 383.77 411.923 383.62 411.974 383.444C412.025 383.269 412.05 383.026 412.05 382.716C412.05 382.429 412.024 382.188 411.972 381.993C411.92 381.799 411.847 381.644 411.754 381.528C411.661 381.409 411.55 381.325 411.419 381.275C411.289 381.226 411.148 381.202 410.997 381.202C410.846 381.202 410.712 381.222 410.595 381.262C410.477 381.303 410.365 381.384 410.257 381.506C410.162 381.619 410.086 381.774 410.029 381.972C409.972 382.169 409.944 382.417 409.944 382.716C409.944 382.983 409.969 383.214 410.018 383.41C410.067 383.605 410.14 383.763 410.236 383.882C410.328 383.995 410.439 384.078 410.569 384.13C410.698 384.182 410.845 384.208 411.01 384.208C411.152 384.208 411.288 384.184 411.417 384.136C411.546 384.088 411.656 384.008 411.745 383.895Z"/>
<path d="M419.664 385.148L418.098 385.148L418.098 384.608C417.808 384.829 417.543 384.996 417.302 385.111C417.061 385.226 416.774 385.283 416.44 385.283C415.901 385.283 415.485 385.128 415.194 384.817C414.902 384.507 414.756 384.049 414.756 383.442L414.756 380.262L416.332 380.262L416.332 382.685C416.332 382.932 416.34 383.137 416.355 383.301C416.371 383.465 416.408 383.6 416.466 383.708C416.522 383.815 416.605 383.893 416.717 383.943C416.828 383.992 416.984 384.017 417.184 384.017C417.318 384.017 417.466 383.992 417.628 383.943C417.791 383.893 417.947 383.821 418.098 383.725L418.098 380.262L419.664 380.262L419.664 385.148Z"/>
<path d="M424.686 381.754L424.546 381.754C424.48 381.731 424.372 381.713 424.224 381.702C424.076 381.69 423.953 381.684 423.855 381.684C423.631 381.684 423.434 381.699 423.263 381.728C423.092 381.757 422.907 381.806 422.71 381.876L422.71 385.148L421.144 385.148L421.144 380.262L422.71 380.262L422.71 380.98C423.055 380.684 423.356 380.487 423.611 380.39C423.866 380.293 424.101 380.244 424.316 380.244C424.371 380.244 424.433 380.246 424.503 380.249C424.572 380.252 424.633 380.256 424.686 380.262L424.686 381.754Z"/>
<path d="M405.445 395.978L403.879 395.978L403.879 395.469C403.609 395.689 403.357 395.852 403.122 395.956C402.887 396.06 402.615 396.113 402.308 396.113C401.713 396.113 401.238 395.884 400.881 395.425C400.524 394.967 400.346 394.349 400.346 393.572C400.346 393.157 400.406 392.789 400.526 392.469C400.647 392.148 400.811 391.873 401.02 391.644C401.217 391.427 401.457 391.258 401.738 391.137C402.019 391.017 402.301 390.957 402.582 390.957C402.875 390.957 403.115 390.988 403.302 391.05C403.489 391.113 403.681 391.192 403.879 391.287L403.879 389.207L405.445 389.207L405.445 395.978ZM403.879 394.629L403.879 392.231C403.769 392.185 403.652 392.152 403.531 392.131C403.409 392.111 403.297 392.101 403.196 392.101C402.784 392.101 402.475 392.229 402.269 392.486C402.063 392.743 401.96 393.099 401.96 393.554C401.96 394.033 402.043 394.38 402.208 394.596C402.373 394.812 402.639 394.92 403.004 394.92C403.146 394.92 403.297 394.894 403.457 394.84C403.616 394.786 403.757 394.716 403.879 394.629Z"/>
<path d="M411.737 393.824L408.151 393.824C408.175 394.207 408.32 394.5 408.589 394.703C408.857 394.906 409.252 395.007 409.774 395.007C410.105 395.007 410.426 394.948 410.736 394.829C411.046 394.71 411.292 394.583 411.471 394.446L411.645 394.446L411.645 395.704C411.292 395.846 410.958 395.949 410.645 396.013C410.331 396.076 409.985 396.108 409.605 396.108C408.624 396.108 407.873 395.888 407.351 395.447C406.829 395.006 406.568 394.378 406.568 393.563C406.568 392.757 406.815 392.118 407.31 391.646C407.804 391.175 408.482 390.939 409.344 390.939C410.138 390.939 410.736 391.14 411.136 391.542C411.537 391.944 411.737 392.522 411.737 393.276L411.737 393.824ZM410.179 392.906C410.17 392.578 410.089 392.332 409.935 392.166C409.782 392.001 409.542 391.918 409.218 391.918C408.916 391.918 408.668 391.997 408.473 392.153C408.279 392.31 408.17 392.561 408.147 392.906L410.179 392.906Z"/>
<path d="M394.654 401.582L391.674 401.582L391.674 402.787L394.437 402.787L394.437 404.04L391.674 404.04L391.674 406.808L390.012 406.808L390.012 400.329L394.654 400.329L394.654 401.582Z"/>
<path d="M399.262 403.414L399.123 403.414C399.056 403.391 398.949 403.373 398.801 403.362C398.653 403.35 398.53 403.344 398.431 403.344C398.208 403.344 398.011 403.359 397.839 403.388C397.668 403.417 397.484 403.466 397.287 403.536L397.287 406.808L395.72 406.808L395.72 401.921L397.287 401.921L397.287 402.639C397.632 402.343 397.932 402.147 398.188 402.05C398.443 401.953 398.678 401.904 398.892 401.904C398.948 401.904 399.01 401.905 399.08 401.908C399.149 401.911 399.21 401.916 399.262 401.921L399.262 403.414Z"/>
<path d="M403.109 405.533L403.109 404.515C402.897 404.532 402.668 404.556 402.421 404.586C402.175 404.617 401.987 404.652 401.86 404.693C401.703 404.742 401.584 404.814 401.501 404.908C401.418 405.003 401.377 405.127 401.377 405.28C401.377 405.382 401.386 405.465 401.403 405.528C401.42 405.592 401.464 405.653 401.534 405.711C401.6 405.769 401.68 405.812 401.773 405.839C401.866 405.867 402.011 405.881 402.208 405.881C402.365 405.881 402.523 405.849 402.684 405.785C402.845 405.721 402.987 405.637 403.109 405.533ZM403.109 406.29C403.024 406.354 402.92 406.431 402.795 406.52C402.671 406.61 402.553 406.681 402.443 406.734C402.289 406.803 402.13 406.855 401.964 406.888C401.799 406.921 401.618 406.938 401.42 406.938C400.956 406.938 400.568 406.795 400.254 406.507C399.941 406.22 399.784 405.853 399.784 405.407C399.784 405.05 399.864 404.758 400.024 404.532C400.183 404.306 400.409 404.127 400.702 403.997C400.993 403.866 401.352 403.773 401.782 403.718C402.211 403.663 402.656 403.623 403.117 403.597L403.117 403.57C403.117 403.301 403.007 403.114 402.787 403.011C402.566 402.908 402.241 402.857 401.812 402.857C401.554 402.857 401.278 402.903 400.985 402.994C400.692 403.085 400.482 403.156 400.354 403.205L400.211 403.205L400.211 402.026C400.376 401.982 400.645 401.931 401.018 401.871C401.391 401.812 401.764 401.782 402.138 401.782C403.029 401.782 403.672 401.919 404.068 402.193C404.464 402.467 404.662 402.897 404.662 403.483L404.662 406.808L403.109 406.808L403.109 406.29Z"/>
<path d="M411.01 406.808L409.435 406.808L409.435 404.384C409.435 404.187 409.425 403.99 409.405 403.794C409.384 403.599 409.349 403.454 409.3 403.362C409.242 403.254 409.157 403.176 409.046 403.127C408.934 403.077 408.778 403.053 408.578 403.053C408.436 403.053 408.291 403.076 408.145 403.122C407.998 403.169 407.84 403.243 407.669 403.344L407.669 406.808L406.102 406.808L406.102 401.921L407.669 401.921L407.669 402.461C407.947 402.243 408.215 402.077 408.471 401.961C408.728 401.844 409.013 401.786 409.326 401.786C409.854 401.786 410.267 401.94 410.564 402.248C410.861 402.555 411.01 403.015 411.01 403.627L411.01 406.808Z"/>
<path d="M414.996 406.938C414.569 406.938 414.18 406.887 413.827 406.786C413.475 406.684 413.168 406.528 412.907 406.316C412.649 406.104 412.449 405.837 412.307 405.515C412.165 405.193 412.094 404.816 412.094 404.384C412.094 403.929 412.17 403.536 412.322 403.205C412.474 402.874 412.687 402.6 412.959 402.383C413.223 402.177 413.528 402.026 413.873 401.93C414.218 401.834 414.577 401.786 414.948 401.786C415.281 401.786 415.589 401.823 415.87 401.895C416.152 401.968 416.414 402.062 416.658 402.178L416.658 403.514L416.436 403.514C416.375 403.462 416.302 403.401 416.216 403.331C416.131 403.261 416.025 403.193 415.901 403.127C415.782 403.063 415.651 403.01 415.509 402.968C415.367 402.926 415.202 402.905 415.013 402.905C414.595 402.905 414.274 403.037 414.049 403.303C413.825 403.568 413.712 403.929 413.712 404.384C413.712 404.854 413.827 405.211 414.058 405.454C414.289 405.698 414.616 405.82 415.039 405.82C415.237 405.82 415.414 405.797 415.572 405.752C415.73 405.708 415.862 405.655 415.966 405.594C416.065 405.536 416.152 405.475 416.227 405.411C416.303 405.347 416.372 405.285 416.436 405.224L416.658 405.224L416.658 406.56C416.411 406.676 416.154 406.768 415.886 406.836C415.617 406.904 415.321 406.938 414.996 406.938Z"/>
<path d="M422.506 404.654L418.92 404.654C418.944 405.037 419.089 405.33 419.358 405.533C419.626 405.736 420.021 405.837 420.543 405.837C420.874 405.837 421.195 405.778 421.505 405.659C421.815 405.54 422.06 405.412 422.24 405.276L422.414 405.276L422.414 406.533C422.06 406.676 421.727 406.779 421.414 406.842C421.1 406.906 420.754 406.938 420.374 406.938C419.393 406.938 418.642 406.718 418.12 406.277C417.598 405.836 417.337 405.208 417.337 404.393C417.337 403.586 417.584 402.947 418.078 402.476C418.573 402.005 419.251 401.769 420.113 401.769C420.907 401.769 421.505 401.97 421.905 402.372C422.306 402.773 422.506 403.351 422.506 404.106L422.506 404.654ZM420.948 403.736C420.939 403.408 420.858 403.161 420.704 402.996C420.551 402.831 420.311 402.748 419.986 402.748C419.685 402.748 419.437 402.826 419.242 402.983C419.048 403.14 418.939 403.391 418.916 403.736L420.948 403.736Z"/>
</g>
</g>
</g>
</svg>
