<!-- All credits to Mariya-Laurel Ivakhnenko that created this SVG -->
<?xml version="1.0" encoding="UTF-8" standalone="no"?>
<!DOCTYPE svg PUBLIC "-//W3C//DTD SVG 1.1//EN" "http://www.w3.org/Graphics/SVG/1.1/DTD/svg11.dtd">
<!-- Created with Vectornator (http://vectornator.io/) -->
<svg height="100%" stroke-miterlimit="10" style="fill-rule:nonzero;clip-rule:evenodd;stroke-linecap:round;stroke-linejoin:round;" version="1.1" viewBox="0 0 841.995 595.35" width="100%" xml:space="preserve" xmlns="http://www.w3.org/2000/svg" xmlns:xlink="http://www.w3.org/1999/xlink">
<defs/>
<g id="Calque-1">
<g opacity="1">
<path d="M414.259 120.791C396.839 95.8632 324.253 97.6667 306.615 144.702C292.02 183.623 316.067 202.858 323.404 232.205C338.285 291.73 287.654 401.924 353.928 472.329C378.83 498.783 395.233 468.768 427.292 469.87C460.895 471.024 476.025 495.222 498.409 489.626C590.013 466.725 499.863 350.123 512.25 325.35C515.666 318.517 520.244 330.669 528.934 307.498C533.739 294.684 512.25 123.335 478.06 112.143C443.87 100.951 414.259 120.791 414.259 120.791Z" fill="#ffffff" fill-rule="nonzero" opacity="1" stroke="none"/>
<g opacity="1">
<path d="M481.727 297.097C478.551 300.273 481.902 305.12 486.959 301.748C486.139 299.288 484.226 301.167 482.599 299.132C482.198 298.632 482.369 297.74 481.727 297.097Z" fill="#1c1c1c" fill-rule="nonzero" opacity="1" stroke="none"/>
<path d="M443.936 334.597C443.645 334.452 443.645 334.452 443.354 334.307C440.516 337.145 442.368 343.353 443.354 346.807C444.506 350.836 446.292 355.59 448.296 359.597C449.668 362.34 448.683 366.571 449.168 369.481C449.91 373.933 452.888 378.605 454.401 383.144C455.095 385.226 458.806 398.238 461.668 396.807C463.184 398.323 461.063 400.132 462.831 401.458C464.079 402.394 466.382 401.562 466.901 400.004C467.85 400.479 467.329 400.142 468.354 401.167C471.284 398.97 475.285 396.446 479.11 395.353C480.884 394.847 480.865 396.857 482.308 397.097C483.87 397.358 487.231 393.344 488.122 392.156C488.699 391.387 483.039 383.602 482.889 382.853C481.115 373.982 475.73 365.826 472.424 357.563C470.988 353.973 469.938 348.681 467.192 345.935C468.533 343.922 471.081 346.738 472.424 347.969C474.294 349.683 476.201 351.363 477.947 353.202C480.83 356.236 483.826 361.761 485.796 365.702C494.344 382.798 500.622 403.35 500.622 423.551C500.622 426.292 499.578 429.088 498.587 431.4C497.934 432.924 497.907 434.974 496.843 436.342C488.697 446.815 475.424 436.434 468.645 429.656C469.442 428.062 463.867 423.624 463.413 421.807C461.413 413.81 454.471 406.135 452.657 397.97C451.309 391.906 447.982 352.832 443.284 346.568C442.993 346.858 439.829 340.963 439.184 340.319C438.966 340.537 439.58 355.691 439.575 356.109C439.481 363.763 439.575 371.419 439.575 379.074C439.575 379.841 439.687 381.05 439.807 382.122C439.943 383.347 440.09 384.392 440.09 384.392C440.09 384.392 441.522 391.175 442.192 394.19C442.671 396.348 446.48 403.892 445.389 405.528C443.8 404.998 440.422 402.317 440.422 402.317C440.422 402.317 436.74 400.514 434.924 402.33C435.36 402.766 435.36 402.766 435.796 403.202C433.551 405.447 431.76 401.844 429.692 404.946C427.824 403.079 430.548 398.398 428.529 397.388C428.355 397.302 428.109 397.281 427.947 397.388C426.276 398.502 426.378 400.527 425.622 402.039C425.034 403.215 424.027 401.951 423.587 403.493C423.515 403.744 425.331 411.002 425.331 411.923C425.331 420.632 428.063 428.347 431.145 436.051C432.02 438.238 432.032 441.22 434.633 442.737C435.712 443.366 440.404 441.664 441.029 441.574C448.676 440.482 451.027 438.86 457.017 433.725C457.449 433.355 459.389 435.279 459.633 435.47C463.232 438.268 465.713 442.712 468.936 445.935C474.473 451.472 485.726 459.906 493.936 457.853C495.998 457.338 497.084 454.996 498.587 453.493C506.753 445.327 507.017 429.005 507.017 418.9C507.017 396.826 495.809 368.221 483.471 349.714C473.831 335.254 460.282 318.251 443.936 334.597Z" fill="#000000" fill-rule="nonzero" opacity="1" stroke="none"/>
<path d="M361.959 322.388C337.552 327.547 341.15 370.448 345.389 386.342C350.11 404.044 355.641 416.03 369.226 434.307C382.811 452.584 410.572 447.413 412.54 439.539C412.934 437.963 410.289 436.725 411.087 434.598C412.21 431.602 414.295 427.258 412.831 423.842C411.891 421.647 408.917 418.966 407.017 417.446C406.866 417.325 406.597 417.339 406.436 417.446C403.722 419.256 406.715 423.051 404.11 425.005C403.982 425.101 398.128 423.966 397.133 423.842C391.659 423.157 386.972 419.658 381.726 418.609C372.875 416.839 376.05 406.369 374.459 400.004C373.989 398.123 373.25 398.049 371.261 396.225C369.476 394.589 366.306 398.425 365.447 399.714C364.19 398.876 360.261 400.788 359.369 398.993C355.786 391.79 351.707 375.464 351.247 368.451C348.292 323.484 372.647 339.608 375.04 343.9C375.99 345.602 379.182 333.94 378.819 332.853C378.322 331.36 371.724 326.746 370.971 326.167C369.28 324.866 367.644 324.312 361.959 322.388Z" fill="#000000" fill-rule="nonzero" opacity="1" stroke="none"/>
<path d="M423.296 184.306C420.639 186.964 421.964 193.871 419.517 196.806C415.857 201.198 414.077 206.525 411.668 211.341C410.909 212.86 411.715 215.295 411.087 216.865C410.393 218.6 408.752 218.968 407.599 220.353C405.638 222.705 403.824 225.865 402.657 228.493C400.796 232.679 400.885 236.55 400.622 241.283C400.423 244.862 398.847 248.445 398.296 251.748C397.67 255.503 388.663 272.659 392.773 274.714C396.197 271.29 411.211 263.278 415.157 266.865C418.334 269.753 418.004 274.462 420.68 277.138C434.758 267.272 432 255.02 425.622 246.516C423.322 243.45 416.109 232.822 417.192 228.493C417.291 228.094 417.657 227.679 418.064 227.62C422.407 227 425.896 226.97 430.273 225.876C435.196 224.645 440.117 221.664 445.389 221.225C447.516 221.048 449.651 220.934 451.785 220.934C452.931 220.934 454.444 221.866 455.564 221.516C457.851 220.801 457.889 218.9 459.343 217.446C465.409 211.38 458.831 201.116 453.238 197.388C450.848 199.437 449.316 204.436 446.552 205.818C445.076 206.556 443.249 205.916 441.61 206.109C439.617 206.343 437.502 207.272 435.506 207.272C431.778 207.272 425.959 199.892 425.622 196.516C425.397 194.272 424.264 184.79 423.296 184.306Z" fill="#000000" fill-rule="nonzero" opacity="1" stroke="none"/>
<path d="M463.413 401.167C461.66 399.414 463.296 399.653 462.831 397.097C462.51 395.332 460.478 397.051 459.633 395.644C456.493 390.41 454.341 382.674 452.366 376.749C451.447 373.991 447.503 361.95 447.503 361.95C447.503 361.95 445.68 375.731 449.168 387.795C452.657 399.859 455.295 406.934 460.091 417.181C464.888 427.428 471.855 446.364 490.776 445.616C509.697 444.868 499.025 397.779 490.738 376.749C482.451 355.718 473.174 344.054 467.482 344.19C465.401 344.24 470.362 353.438 471.261 355.237C475.666 364.046 479.176 373.456 482.308 382.853C483.31 385.86 485.937 388.478 487.541 391.284C488.148 392.347 484.22 396.266 483.471 396.516C481.242 397.259 481.684 394.129 479.11 394.772C476.619 395.395 473.385 397.004 470.971 397.97C469.309 398.634 469.185 400.752 467.773 401.458C466.513 402.088 465.169 400.289 463.413 401.167Z" fill="#fefdfe" fill-rule="nonzero" opacity="1" stroke="none"/>
<path d="M363.412 398.26C368.45 404.138 366.926 391.361 373.587 399.132C374.277 399.937 373.983 415.319 376.494 416.574C381.26 418.957 387.172 422.348 392.192 423.26C395.889 423.933 400.233 423.453 402.947 426.167C401.188 427.927 395.053 425.71 392.773 425.295C387.872 424.404 370.664 417.375 368.354 413.086C367.127 410.807 372.252 408.074 369.517 404.656C368.17 402.972 363.081 403.366 361.959 405.237C361.573 405.881 367.248 415.681 368.354 417.156C375.033 426.061 382.255 433.787 394.226 436.923C405.031 439.753 407.708 429.631 402.947 426.458C410.513 418.892 403.051 414.954 401.203 407.563C400.683 405.481 400.079 402.345 397.715 401.458C396.393 400.962 381.247 395.837 380.854 395.935C377.111 396.871 378.779 398.569 374.168 395.935C372.06 394.73 364.55 391.621 363.703 388.958C362.44 384.988 365.456 380.502 366.61 377.039C367.975 372.945 369.551 367.856 370.389 363.667C371.121 360.006 374.112 356.604 374.459 352.621C374.619 350.784 374.662 348.939 374.75 347.097C374.813 345.764 374.71 347.405 374.459 345.644C374.348 344.871 375.129 344.001 374.75 343.318C372.713 339.652 365.828 339.39 362.25 339.539C357.605 339.733 353.283 346.494 352.657 350.876C350.91 363.102 351.68 376.108 355.273 388.086C355.795 389.827 359.003 398.26 360.215 398.26C362.216 398.26 361.703 392.737 364.284 392.737C369.34 392.737 364.497 397.176 363.412 398.26Z" fill="#fefdfe" fill-rule="nonzero" opacity="1" stroke="none"/>
<path d="M375.912 346.516C375.137 346.904 375.525 346.904 374.75 346.516C374.45 346.816 373.583 354.956 372.715 357.272C369.842 364.933 366.573 372.826 364.575 380.818C363.899 383.525 361.838 385.962 363.122 388.958C363.769 390.469 365.326 391.419 366.61 392.446C367.778 393.38 378.105 398.548 379.11 398.26C380.6 397.834 379.339 396.47 380.564 396.225C382.599 395.818 385.125 398.903 386.959 399.132C389.969 399.509 396.276 400.601 398.296 402.621C400.18 400.737 399.049 401.429 398.878 399.714C398.704 397.978 399.124 396.208 398.878 394.481C398.657 392.938 394.744 393.071 394.226 393.028C391.971 392.84 379.791 390.221 378.529 388.958C379.227 388.26 383.749 386.527 384.343 386.923C385.511 387.702 385.806 389.438 387.54 388.667C388.409 388.281 389.608 384.763 390.738 385.47C394.338 387.72 396.559 392.73 400.04 389.249C401.402 390.61 401.547 392.025 402.075 393.609C403.936 399.192 406.641 406.149 412.25 409.888C416.204 405.934 410.606 402.781 409.633 399.132C408.882 396.315 408.523 394.057 407.599 391.284C406.592 388.264 403.529 382.892 403.529 379.656C403.529 376.985 405.564 375.761 405.564 372.388C405.564 370.735 403.811 369.751 403.238 368.318C401.63 364.297 399.229 360.185 397.715 356.4C396.534 353.447 395.792 347.791 393.354 345.353C391.704 343.703 388.711 344.772 386.378 344.772C381.227 344.772 381.377 351.981 375.912 346.516Z" fill="#000000" fill-rule="nonzero" opacity="1" stroke="none"/>
<path d="M354.691 232.562C357.295 236.034 354.94 241.517 357.598 245.062C363.169 252.49 370.779 260.085 375.04 268.609C370.768 272.881 367.551 259.597 364.284 259.597C357.991 259.597 350.296 260.931 345.098 264.83C342.479 266.794 341.594 271.55 345.97 272.097C347.999 272.351 350.207 270.686 352.075 271.516C355.733 273.142 360.078 276.201 364.866 275.004C366.644 274.56 373.049 271.157 374.459 272.097C375.137 271.516 375.906 271.025 376.494 270.353C377.241 269.499 376.619 265.863 376.784 264.539C377.497 258.837 378.763 253.415 379.401 247.679C379.58 246.062 381.364 242.486 380.854 240.702C380.495 239.445 372.374 238.448 372.133 234.597C371.884 230.614 374.898 227.841 374.898 223.942C374.898 220.234 386.413 216.601 386.668 215.411C387.516 211.454 384.934 209.136 384.633 205.527C384.464 203.497 384.606 201.443 384.343 199.423C384.307 199.151 383.981 199.006 383.761 198.841C380.969 196.747 376.78 198.744 373.296 198.551C372.753 198.52 372.422 197.534 371.552 197.969C369.567 198.961 368.215 203.884 366.901 205.527C365.152 207.713 359.707 215.406 359.052 218.027C357.89 222.673 357.868 228.592 354.691 232.562Z" fill="#000000" fill-rule="nonzero" opacity="1" stroke="none"/>
<path d="M395.219 305.027C396.556 304.136 398.851 300.619 400.04 299.132C398.212 297.304 398.509 292.659 396.552 290.702C396.843 290.411 396.843 290.411 397.133 290.121C397.424 290.411 397.424 290.411 397.715 290.702C399.081 289.336 401.252 280.889 403.409 280.581C406.074 280.2 412.573 281.077 409.343 284.307C409.634 284.889 409.186 287.969 409.824 288.182C410.664 288.462 407.036 297.261 407.036 297.261C407.036 297.261 407.937 301.214 408.603 301.032C409.299 300.842 411.597 298.183 411.597 298.183C411.597 298.183 420.544 284.217 420.884 283.026C421.843 279.669 419.778 266.339 414.575 265.993C414.088 265.96 408.189 265.846 407.308 265.993C402.732 266.755 396.841 271.081 392.773 274.132C391.069 272.428 392.797 269.41 393.354 267.737C395.872 260.184 398.515 253.272 400.04 245.644C400.495 243.373 403.085 236.41 400.622 235.179C399.122 234.429 395.914 235.453 393.936 234.888C392.593 234.504 384.249 231.593 383.761 231.69C382.009 232.041 382.835 235.152 382.598 236.923C381.801 242.9 380.974 248.994 379.982 254.946C378.672 262.809 377.113 270.618 378.238 278.493C378.604 281.051 381.64 284.668 383.212 286.689C387.74 292.511 390.227 300.035 395.219 305.027Z" fill="#b67212" fill-rule="nonzero" opacity="1" stroke="none"/>
<path d="M424.459 226.748C424.709 226.998 426.764 237.712 427.366 240.12C429.673 249.348 436.595 257.775 438.413 266.865C439.168 270.642 442.42 272.804 440.157 277.33C442.201 279.375 445.269 277.001 447.715 276.458C452.251 275.45 464.003 273.251 466.901 270.353C457.216 260.668 456.145 248.615 456.145 234.306C456.145 230.621 455.593 226.4 457.308 222.969C454.239 219.901 450.336 220.353 445.68 220.353C441.289 220.353 437.289 224.289 433.471 224.713C430.903 224.999 426.353 224.854 424.459 226.748Z" fill="#fefdfe" fill-rule="nonzero" opacity="1" stroke="none"/>
<path d="M440.738 150.585C438.448 148.295 437.063 144.679 434.343 142.737C433.365 142.038 431.917 143.795 432.308 144.771C433.197 146.994 435.891 150.971 437.54 152.62C437.25 153.056 437.25 153.056 436.959 153.492C434.745 152.385 433.111 150.437 431.516 148.576C430.759 147.693 430.012 147.402 428.819 146.806C427.08 145.936 426.849 151.216 426.494 151.748C425.597 153.094 422.985 152.829 423.587 155.237C424.572 159.176 428.905 162.342 431.145 165.702C429.918 166.929 426.803 166.302 425.622 165.12C423.392 167.35 429.483 173.801 431.09 175.408C431.381 175.117 432.308 175.295 432.599 175.004C437.916 178.549 453.658 180.767 458.471 177.33C460.609 175.802 463.637 171.49 464.285 168.899C464.599 167.641 465.897 166.648 466.487 165.468C468.412 161.618 467.823 160.101 465.738 155.237C462.752 148.269 461.035 155.766 458.471 153.202C460.03 150.863 461.111 146.54 459.052 144.481C457.203 146.021 456.708 147.509 455.273 149.423C454.982 149.132 454.982 149.132 454.692 148.841C455.181 147.862 455.368 144.377 455.273 143.899C454.692 140.996 453.117 143.913 452.075 143.318C451.017 142.713 449.657 140.241 448.587 142.737C448.015 144.071 449.671 148.176 449.871 149.774C450.264 152.917 450.423 162.703 448.006 165.12C446.413 164.058 447.108 161.742 446.843 159.888C446.691 158.825 445.71 157.152 445.68 156.399C445.494 151.752 445.773 147.096 445.68 142.446C445.613 139.091 439.92 142.454 439.575 143.027C438.309 145.137 443.679 147.644 440.738 150.585Z" fill="#848483" fill-rule="nonzero" opacity="1" stroke="none"/>
<path d="M422.424 166.574C423.616 165.382 424.567 166.756 425.622 165.702C427.072 167.152 430.346 167.082 431.726 165.702C430.906 164.881 422.906 156.178 424.168 154.074C424.961 152.752 426.633 153.518 427.075 151.748C427.499 150.054 427.226 148.69 428.529 147.388C429.866 148.725 435.558 156.347 438.413 153.492C436.937 150.542 433.934 147.907 432.889 144.771C431.415 140.348 438.06 147.484 438.413 147.969C439.008 148.787 439.724 150.202 440.447 151.167C443.27 148.909 441.442 145.889 440.157 143.318C441.443 142.031 442.322 142.897 443.936 141.283C444.287 141.517 445.087 141.842 445.099 142.446C445.192 147.096 444.913 151.752 445.099 156.399C445.15 157.689 445.919 167.63 448.878 165.411C450.841 163.938 451.426 150.112 451.203 148.55C450.877 146.269 448.313 143.883 450.04 142.155C454.278 146.392 452.286 142.406 454.11 143.318C454.355 143.44 454.647 143.629 454.692 143.899C455.065 146.141 453.379 148.982 454.982 150.585C456.923 149.13 457.119 146.704 458.761 145.062C462.869 147.8 456.818 151.106 457.889 153.783C458.894 156.295 462.003 152.206 463.413 152.911C465.572 153.991 465.831 159.051 466.32 160.76C466.845 162.599 464.168 164.424 463.703 166.283C460.396 179.511 453.994 180.208 440.157 176.748C437.98 176.204 434.551 176.084 432.889 174.423C430.546 176.18 430.588 180.246 433.471 181.399C438.439 183.387 443.856 187.584 448.878 182.562C450.291 183.269 452.927 185.158 454.11 186.341C463.844 179.852 457.77 188.119 454.692 192.737C456.078 194.123 459.456 193.757 461.378 193.899C463.699 194.071 466.04 194.438 468.354 194.19C470.11 194.002 471.942 191.184 473.006 190.12C470.961 187.871 462.751 181.794 461.959 179.946C460.733 177.084 468.852 167.782 469.517 165.12C471.588 156.838 467.532 148.6 461.959 143.027C460.394 141.462 458.085 141.511 456.436 140.411C455.143 139.549 455.621 136.827 454.11 136.632C446.771 135.685 438.411 137.38 431.436 138.376C429.937 138.59 429.599 140.794 428.529 141.864C426.057 144.336 423.442 146.66 420.971 149.132C420.01 150.093 420.259 152.822 420.099 153.783C419.201 159.168 418.75 161.982 422.424 166.574Z" fill="#000000" fill-rule="nonzero" opacity="1" stroke="none"/>
<path d="M411.378 315.411C408.694 318.095 406.251 322.139 402.657 323.842C399.445 325.363 400.037 322.799 397.715 325.586C396.792 326.693 396.859 328.477 395.68 329.655C399.22 333.196 398.396 340.561 401.203 344.772C406.615 352.889 408.335 364.85 412.831 373.842C414.26 376.699 413.736 381.724 416.029 384.016C418.697 382.682 419.483 372.574 420.099 369.19C420.47 367.147 422.917 357.487 422.133 355.528C419.072 347.873 419.149 337.776 417.192 329.946C416.274 326.275 416.841 320.467 414.575 317.446C413.643 316.203 412.75 317.656 411.668 316.574C411.814 316.283 411.814 316.283 411.959 315.993C411.668 315.702 411.668 315.702 411.378 315.411Z" fill="#fefdfe" fill-rule="nonzero" opacity="1" stroke="none"/>
<path d="M455.719 221.632C455.719 221.632 456.091 230.111 455.854 234.016C455.684 236.822 455.564 239.634 455.564 242.446C455.564 251.917 459.319 264.051 466.158 270.89C468.296 273.028 479.265 267.398 480.854 265.411C482.146 263.797 481.145 259.232 481.145 257.272C481.145 253.809 475.475 250.571 475.041 247.097C474.117 239.706 474.855 230.968 474.459 223.841C474.365 222.144 470.386 224.691 470.099 224.713C463.617 225.212 460.79 220.561 455.719 221.632Z" fill="#c58527" fill-rule="nonzero" opacity="1" stroke="none"/>
<path d="M459.275 343.264C455.191 345.306 448.296 348.865 448.296 354.074C448.296 359.649 452.578 363.431 454.11 368.028C455.957 373.567 458.686 379.322 460.796 384.597C461.681 386.81 461.791 391.207 463.703 392.737C464.49 393.366 465.219 392.426 465.738 392.737C466.106 392.958 467.778 395.264 468.936 395.353C472.635 395.638 479.027 394.274 481.727 391.574C481.095 390.943 480.323 390.462 479.692 389.83C478.916 389.055 478.916 388.861 479.692 388.086C481.111 386.666 482.393 390.363 483.18 390.993C483.8 391.489 484.969 390.21 484.634 389.539C483.009 386.29 479.936 383.51 477.947 380.528C477.579 379.974 477.758 378.538 477.366 377.911C472.841 370.671 464.489 345.144 459.275 343.264Z" fill="#fefdfe" fill-rule="nonzero" opacity="1" stroke="none"/>
<path d="M404.168 383.7C405.271 384.803 404.929 386.653 405.331 388.061C406.177 391.021 407.226 394.618 408.238 397.654C408.779 399.276 411.059 400.608 411.436 402.305C411.819 404.03 411.473 405.287 412.308 406.956C411.872 407.392 411.872 407.392 411.436 407.828C407.249 403.642 404.715 400.167 403.006 395.038C402.188 392.585 401.508 388.598 399.517 386.607C398.129 387.533 399.13 387.834 397.482 388.933C397.038 389.229 396.863 403.057 401.805 411.342C406.747 419.627 414.594 425.12 415.796 425.27C422.333 426.087 424.107 417.17 424.625 413.049C425.906 402.857 415.796 387.77 415.796 387.77C415.796 387.77 407.273 377.492 404.168 383.7Z" fill="#c9c9c9" fill-rule="nonzero" opacity="1" stroke="none"/>
<path d="M422.424 166.283C421.552 167.155 420.721 174.317 421.261 176.748C421.711 178.771 424.75 180.894 424.75 182.853C424.75 183.434 424.089 183.592 423.878 184.016C422.438 186.894 425.111 198.815 427.292 201.213C429.798 203.971 435.225 211.063 440.019 206.268C437.082 203.331 434.187 200.855 432.308 197.097C432.599 196.806 432.599 196.806 432.889 196.516C435.359 198.985 437.169 204.497 441.208 205.844C448.421 208.248 450.999 201.284 453.529 196.225C454.094 195.095 455.993 194.176 455.273 192.737C456.754 191.256 460.13 186.474 460.506 184.597C461.199 181.129 455.254 184.906 454.401 185.76C452.983 184.815 450.409 181.981 448.878 181.981C447.815 181.981 447.585 183.768 446.843 184.016C444.152 184.913 439.055 184.444 436.668 182.853C432.208 179.879 433.292 181.198 432.308 175.295C432.157 174.388 429.499 173.352 429.11 174.713C428.734 176.031 429.498 177.814 428.529 178.783C426.494 177.426 427.947 175.25 427.947 173.26C427.947 171.931 423.356 166.905 422.424 166.283Z" fill="#c58527" fill-rule="nonzero" opacity="1" stroke="none"/>
<path d="M401.785 206.399C399.451 206.733 394.258 207.225 392.192 208.144C389.747 209.23 388.8 210.966 386.134 211.855C386.134 214.69 386.187 217.905 385.796 220.644C385.228 224.624 380.482 225.411 382.017 230.527C382.782 233.076 401.089 237.19 401.346 235.56C401.699 233.315 402.241 230.527 403.238 228.783C406.979 222.237 410.308 217.327 408.761 208.434C408.594 207.474 406.193 207.029 401.785 206.399Z" fill="#848483" fill-rule="nonzero" opacity="1" stroke="none"/>
<path d="M433.761 317.737C433.471 318.028 433.471 318.028 433.18 318.318C432.436 317.723 430.094 314.659 429.401 315.121C426.738 316.896 425.36 334.366 425.04 336.923C424.774 339.052 425.495 341.992 423.878 343.609C423.587 343.318 423.587 343.318 423.296 343.028C423 343.324 423.225 352.937 423.006 354.365C422.147 359.947 422.212 365.81 421.261 371.516C420.525 375.932 418.645 381.027 418.645 385.47C418.645 388.059 421.289 391.504 419.103 393.691C421.906 398.867 421.694 398.584 423.548 403.948C424.582 402.915 426.076 402.293 426.785 400.877C427.77 398.905 427.366 393.784 427.366 391.574C427.366 385.966 429.577 379.988 430.273 374.423C430.76 370.524 429.239 364.701 432.017 361.923C432.808 362.714 432.389 363.167 433.18 363.958C435.023 362.115 435.796 347.023 435.796 343.9C435.796 342.778 434.73 342.931 435.796 341.865C438.975 345.044 443.781 356.227 445.099 360.179C445.692 361.96 448.562 369.764 450.329 368.944C452.096 368.124 448.878 361.632 448.878 361.632C447.115 355.464 444.039 348.896 443.354 342.737C443.074 340.214 441.271 336.971 443.354 334.888C443.645 335.033 443.645 335.033 443.936 335.179C461.976 317.139 477.198 339.937 486.378 355.237C499.781 377.576 510.286 413.315 505.273 438.377C504.239 443.547 501.384 449.21 498.006 453.202C497.167 454.194 494.571 456.002 493.936 457.272C496.321 459.657 502.233 455.37 504.11 453.493C509.641 447.962 511.637 439.132 511.959 431.4C512.1 428.01 512.25 424.618 512.25 421.225C512.25 397.794 499.534 359.587 484.343 341.865C479.359 336.05 466.478 321.31 456.727 323.26C451.718 324.262 447.936 327.372 443.284 329.698C442.993 329.407 443.235 330.066 442.482 330.818C441.86 330.196 444.936 315.283 437.831 322.388C437.54 322.097 437.54 322.097 437.25 321.807C438.84 320.216 440.431 318.564 442.192 317.155C441.52 315.811 442.482 314.705 442.482 313.376C442.482 307.235 438.683 303.469 440.738 295.934C441.162 294.379 443.081 289.447 441.901 287.795C438.066 282.426 429.036 294.936 427.292 297.261C422.23 304.01 428.676 311.634 433.761 317.737Z" fill="#848483" fill-rule="nonzero" opacity="1" stroke="none"/>
<path d="M422.715 183.144C423.006 183.289 423.232 184.337 423.523 184.482C426.27 181.735 423.07 180.719 422.133 177.911C419.512 170.046 426.207 167.155 414.575 167.155C414.176 167.155 413.751 167.234 413.412 167.446C411.502 168.64 410.541 178.251 408.18 181.399C405.291 185.252 402.623 189.973 398.296 192.446C397.058 193.154 392.061 195.033 391.319 196.516C390.655 197.844 391.54 198.082 392.192 198.841C396.172 203.485 400.84 205.257 407.017 203.492C407.483 203.359 408.005 203.626 408.471 203.492C410.412 202.938 412.18 199.716 413.412 198.26C415.009 196.373 418.185 193.911 418.936 191.283C419.776 188.343 420.51 185.348 422.715 183.144Z" fill="#000000" fill-rule="nonzero" opacity="1" stroke="none"/>
<path d="M423.878 226.458C422.062 228.274 417.69 225.322 416.61 228.202C415.924 230.032 418.735 237.818 419.808 239.248C424.258 245.182 429.692 251.924 429.692 259.888C429.692 264.612 425.59 271.65 422.715 275.004C422.711 275.008 420.776 276.753 420.68 277.33C420.357 279.27 420.785 280.442 420.099 282.272C419.775 283.136 419.026 282.497 419.517 283.725C420.283 285.64 423.591 284.139 425.04 283.725C428.572 282.716 436.988 285.626 438.184 282.035C443.032 282.035 440.954 271.69 440.157 268.9C437.283 258.843 428.654 244.838 426.017 238.418C425.236 236.517 426.203 227.911 423.878 226.458Z" fill="#0694d7" fill-rule="nonzero" opacity="1" stroke="none"/>
<path d="M387.25 295.934C382.181 301.003 380.601 306.154 380.273 313.376C380.088 317.447 381.514 321.941 379.691 325.586C384.095 329.989 389.531 333.021 395.68 329.946C397.973 328.8 397.591 325.862 399.75 324.423C397.316 321.989 399.104 322.067 398.587 319.481C398.339 318.244 396.917 317.089 396.552 315.993C395.58 313.076 396.696 308.691 396.552 305.818C396.512 305.021 395.224 305.316 394.808 304.946C392.323 302.738 390.08 297.35 387.25 295.934Z" fill="#c58527" fill-rule="nonzero" opacity="1" stroke="none"/>
<path d="M474.75 191.865C474.459 192.155 474.459 192.155 474.168 192.446C474.93 193.588 473.032 193.404 471.885 194.552C469.767 193.493 468.888 195.58 467.244 196.895C460.847 202.013 462.688 203.788 462.264 211.855C462.07 215.536 458.469 216.854 457.19 220.053C456.136 222.688 460.068 222.024 461.378 222.679C465.663 224.821 470.043 224.16 474.168 222.097C474.459 222.388 474.459 222.388 474.75 222.679C478.126 219.978 473.973 217.907 475.622 213.667C475.92 212.901 477.288 212.741 477.366 211.923C477.89 206.424 477.46 200.875 477.366 195.353C477.35 194.421 475.07 192.184 474.75 191.865Z" fill="#848483" fill-rule="nonzero" opacity="1" stroke="none"/>
<path d="M422.715 182.562C420.087 185.19 419.819 187.866 418.354 191.283C417.932 192.269 416.41 194.157 416.41 194.157C416.41 194.157 413.811 196.811 412.831 197.969C410.97 200.169 409.387 203.256 406.436 203.492C400.844 203.94 396.599 203.341 392.773 199.132C392.273 198.582 392.137 196.552 391.319 196.225C389.991 195.694 385.789 197.584 384.633 197.969C382.86 198.56 384.118 208.817 386.115 212.487C390.913 208.887 391.29 209.183 392.482 208.725C395.069 207.73 407.828 206.382 408.18 208.725C408.439 210.45 408.118 212.215 408.18 213.958C408.216 214.972 406.987 220.01 407.656 220.68C413.186 217.017 411.176 214.026 413.412 208.434C415.626 202.9 419.908 198.09 421.615 192.118C422.283 189.78 424.703 184.551 422.715 182.562Z" fill="#0682c0" fill-rule="nonzero" opacity="1" stroke="none"/>
<path d="M424.459 306.981C408.332 311.013 415.21 321.611 417.773 333.144C417.992 334.13 418.208 337.542 418.208 337.542C418.208 337.542 419.789 353.9 421.79 355.901C423.481 345.582 425.735 323.997 426.203 317.446C426.535 312.805 427.462 310.613 424.459 306.981Z" fill="#b67212" fill-rule="nonzero" opacity="1" stroke="none"/>
<path d="M379.982 325.295C376.206 329.072 379.885 338.473 374.75 343.609C375.419 344.948 373.596 347.079 375.912 347.097C379.93 351.115 380.402 347.286 384.343 345.644C386.738 344.646 390.315 345.995 392.773 345.644C393.824 345.494 394.792 335.451 395.233 334.937C395.648 334.452 396.94 330.901 396.57 329.791C395.749 327.329 389.837 330.528 388.122 330.528C384.616 330.528 382.741 326.675 379.982 325.295Z" fill="#0165b2" fill-rule="nonzero" opacity="1" stroke="none"/>
<path d="M372.424 271.516C370.758 273.182 364.211 273.733 363.703 275.004C363.332 275.933 367.302 281.293 368.064 282.562C371.893 288.945 375.19 294.924 379.11 301.458C380.176 303.234 381.528 305.059 381.528 305.059C384.609 297.956 387.309 296.296 387.745 295.86C385.587 291.544 375.944 273.863 372.424 271.516Z" fill="#b6b4ab" fill-rule="nonzero" opacity="1" stroke="none"/>
<path d="M487.25 275.295C485.597 276.121 484.23 275.586 482.599 275.586C480.884 275.586 481.244 277.874 480.854 278.783C480.087 280.574 475.825 280.886 475.622 283.725C475.49 285.567 477.649 295.065 481.145 293.9C483.671 293.058 478.558 286.003 480.273 283.144C481.085 281.791 482.171 281.982 483.761 282.272C485.48 282.584 484.854 287.041 485.796 287.795C487.8 289.398 492.905 286.526 493.354 290.121C493.903 294.507 489.806 299.242 490.448 301.167C496.633 301.167 503.926 291.343 499.459 285.76C495.622 280.964 490.844 280.087 487.25 275.295Z" fill="#1c1c1c" fill-rule="nonzero" opacity="1" stroke="none"/>
<path d="M395.68 341.283C388.619 345.647 401.733 364.418 404.401 370.644C405.371 372.908 405.052 381.131 410.215 379.656C413.924 378.596 410.995 371.913 409.924 369.772C406.066 362.055 404.383 353.533 400.04 345.935C398.84 343.834 398.765 339.376 395.68 341.283Z" fill="#848483" fill-rule="nonzero" opacity="1" stroke="none"/>
<path d="M438.744 379.511C439.094 379.655 439.094 379.655 439.443 379.798C439.677 379.607 440.135 379.495 440.143 379.224C440.371 371.675 440.029 364.12 440.143 356.569C440.15 356.091 440.226 355.608 440.143 355.135C439.509 351.498 440.4 346.74 437.629 343.712C436.933 342.95 434.861 340.359 435.012 342.283C435.377 346.933 434.024 348.437 433.846 350.547C433.073 359.732 429.998 369.463 429.998 378.938C429.998 382.064 436.673 381.208 438.744 379.511Z" fill="#b67212" fill-rule="nonzero" opacity="1" stroke="none"/>
<path d="M434.44 402.911C435.882 401.351 437.462 402.402 439.274 401.749C439.274 398.454 439.333 395.159 439.274 391.865C439.231 389.518 440.488 379.432 439.999 378.374C438.951 376.104 431.699 377.149 430.538 379.244C430.138 379.965 427.841 395.831 428.809 401.595C429.119 403.44 433.686 402.503 434.44 402.911Z" fill="#0682c0" fill-rule="nonzero" opacity="1" stroke="none"/>
<path d="M476.202 193.406C475.789 192.58 472.715 189.83 472.715 189.83C471.115 190.897 470.257 193.327 468.354 193.609C466.15 193.935 457.566 193.72 455.357 192.781C454.312 194.087 452.694 198.015 452.694 198.015C454.59 199.117 459.687 203.998 460.796 208.434C461.169 209.926 459.528 216.357 460.796 216.865C464.509 218.35 464.243 204.49 465.157 201.748C466.795 196.833 473.404 196.204 476.202 193.406Z" fill="#0682c0" fill-rule="nonzero" opacity="1" stroke="none"/>
<path d="M490.738 300.295C490.593 300.004 490.593 300.004 490.448 299.714C492.412 297.749 497.112 289.098 491.901 287.795C490.209 287.372 488.395 288.042 486.668 287.795C484.165 287.437 487.284 279.644 481.145 281.69C479.477 282.246 478.842 285.29 479.11 286.632C479.475 288.455 480.875 290.452 481.727 292.155C482.846 294.393 481.309 296.171 481.727 298.26C482.51 302.179 488.344 302.689 490.738 300.295Z" fill="#a35e04" fill-rule="nonzero" opacity="1" stroke="none"/>
<path d="M386.087 215.411C382.747 215.888 373.676 219.124 372.715 222.969C372.339 224.471 373.425 225.941 373.005 227.62C371.98 231.722 370.292 235.695 374.75 238.667C375.37 239.08 377.509 240.229 378.238 240.411C386.036 242.361 377.286 228.917 377.657 227.62C378.141 225.925 383.52 218.949 385.796 221.225C386.926 220.096 386.668 217.498 386.087 215.411Z" fill="#0682c0" fill-rule="nonzero" opacity="1" stroke="none"/>
<path d="M377.812 275.916C379.071 275.287 375.902 272.642 377.812 271.05C373.884 263.192 363.169 250.901 358.761 245.934C354.354 240.968 359.86 216.408 359.095 217.933C351.302 233.489 353.725 244.002 354.691 245.934C359.111 254.774 371.08 268.222 377.812 275.916Z" fill="#0682c0" fill-rule="nonzero" opacity="1" stroke="none"/>
<path d="M368.936 384.597C372.5 382.815 371.223 385.106 373.587 386.051C375.774 386.926 383.762 384.887 385.215 383.435C384.951 382.907 383.549 378.585 383.18 378.493C381.52 378.078 379.941 379.229 378.238 379.074C377.114 378.972 374.131 376.062 373.587 375.586C374.669 374.144 374.19 374.826 375.04 373.551C374.314 372.824 374.314 372.824 373.587 372.097C372.499 372.641 372.032 371.427 371.261 372.97C370.063 375.366 367.676 382.078 368.936 384.597Z" fill="#ecebeb" fill-rule="nonzero" opacity="1" stroke="none"/>
<path d="M414.866 298.841C411.078 299.608 411.791 303.092 412.122 305.575C412.583 309.035 413.361 308.577 412.066 311.167C411.979 311.341 414.141 315.189 414.259 315.036C417.492 310.82 425.412 307.678 425.04 305.818C423.649 298.861 420.283 297.746 414.866 298.841Z" fill="#0682c0" fill-rule="nonzero" opacity="1" stroke="none"/>
<path d="M410.247 299.596C411.428 300.777 411.952 302.323 413.122 303.493C413.948 303.079 413.55 303.355 414.285 302.621C413.724 301.5 413.645 297.456 415.785 297.261C419.608 296.914 426.725 296.752 427.657 293.028C427.921 291.97 429.032 289.624 427.366 288.958C426.186 288.486 416.162 291.157 414.285 291.574C413.708 291.702 413.699 295.343 411.464 298.287C411.116 298.745 410.714 299.187 410.247 299.596Z" fill="#0682c0" fill-rule="nonzero" opacity="1" stroke="none"/>
<path d="M432.308 154.946C428.956 155.064 435.221 164.623 437.25 166.283C438.906 167.638 441.994 169.091 443.936 170.062C447.146 171.667 442.822 164.055 442.773 163.957C440.473 159.358 437.344 154.768 432.308 154.946Z" fill="#000000" fill-rule="nonzero" opacity="1" stroke="none"/>
<path d="M375.609 276.872C378.303 279.567 383.999 289.725 385.796 293.318C385.505 293.609 391.222 301.942 394.808 305.528C395.471 306.19 396.907 305.851 397.133 304.946C397.479 303.563 394.872 303.137 394.226 302.33C391.263 298.626 388.771 294.4 386.378 290.411C385.16 288.382 377.389 275.093 375.609 276.872Z" fill="#a35e04" fill-rule="nonzero" opacity="1" stroke="none"/>
<path d="M383.575 226.902C381.744 228.733 377.688 256.479 375.912 269.19C374.137 281.902 377.291 276.388 378.676 279.108C377.378 274.158 378.695 267.473 378.819 263.376C378.971 258.387 386.301 231.447 383.575 226.902Z" fill="#dea86e" fill-rule="nonzero" opacity="1" stroke="none"/>
<path d="M461.378 156.399C459.222 158.555 448.649 166.345 452.366 170.062C454.335 168.093 466.776 160.635 461.378 156.399Z" fill="#1c1c1c" fill-rule="nonzero" opacity="1" stroke="none"/>
<path d="M434.838 342.107C433.268 343.677 423.655 398.898 426.36 401.604C427.085 400.879 428.096 396.855 429.175 391.213C432.377 374.462 436.173 343.442 434.838 342.107Z" fill="#75706c" fill-rule="nonzero" opacity="1" stroke="none"/>
<path d="M431.436 409.016C430.044 409.48 430.78 409.09 429.401 410.47C430.403 412.474 430.923 416.97 431.145 419.191C431.496 422.696 434.101 425.812 435.215 428.784C435.804 430.355 438.777 431.361 439.575 429.365C440.411 427.275 437.445 425.443 436.378 423.842C434.095 420.418 432.308 413.855 431.436 409.016Z" fill="#ffffff" fill-rule="nonzero" opacity="1" stroke="none"/>
<path d="M428.819 308.144C426.859 310.105 427.855 309.628 426.203 310.179C426.203 313.955 419.337 366.547 421.179 368.389C423.832 365.737 427.249 319.425 428.819 316.283C430.293 313.336 432.739 321.525 434.343 318.318C434.694 317.616 432.248 315.408 431.726 314.539C430.531 312.546 430.459 309.784 428.819 308.144Z" fill="#444444" fill-rule="nonzero" opacity="1" stroke="none"/>
<path d="M442.192 313.958C441.104 315.046 442.078 316.622 441.029 317.737C439.526 319.333 437.358 320.427 436.378 322.388C437.755 323.765 441.424 320.084 442.192 322.388C442.685 323.869 439.845 338.77 442.409 337.401C442.409 337.401 443.943 336.175 443.92 335.335C443.837 332.243 444.077 332.185 444.123 327.965C444.144 325.977 444.4 323.074 446.407 321.446C447.998 320.156 442.788 319.01 444.678 317.12C443.96 315.686 443.375 315.734 442.192 313.958Z" fill="#444444" fill-rule="nonzero" opacity="1" stroke="none"/>
<path d="M393.631 339.526C393.764 341.062 396.532 340.043 397.412 341.276C399.372 344.019 409.903 369.926 411.1 374.713C412.043 378.486 407.924 377.506 405.162 374.744C404.678 375.132 404.439 376.612 404.131 377.151C403.719 377.873 407.385 381.796 407.881 381.994C413.26 384.146 415.882 389.953 419.506 394.182C421.148 392.54 420.225 388.57 419.819 386.338C418.775 380.599 421.224 373.33 422.131 367.432C422.401 365.681 423.701 362.064 422.412 360.776C421.614 361.574 422.107 361.242 420.975 361.619C420.975 365.279 418.236 381.234 416.319 383.151C415.231 382.063 415.034 378.655 414.569 377.026C412.863 371.055 399.843 334.034 396.442 331.994C396.05 331.759 393.294 335.635 393.631 339.526Z" fill="#1c1c1c" fill-rule="nonzero" opacity="1" stroke="none"/>
<path d="M404.478 299.178C404.317 299.338 386.362 281.368 387.258 283.157C388.252 285.143 394.333 292.576 400.209 299.549C406.008 306.433 411.607 312.869 411.914 313.176C418.896 306.194 409.828 293.365 404.478 299.178Z" fill="#b67212" fill-rule="nonzero" opacity="1" stroke="none"/>
<path d="M468.936 276.748C470.857 278.67 473.721 281.489 476.203 283.144C477.306 282.317 480.826 280.003 481.436 278.783C481.978 277.699 480.962 276.488 480.273 275.876C479.447 275.142 478.719 274.145 477.657 273.841C476.588 273.536 469.489 276.195 468.936 276.748Z" fill="#c58527" fill-rule="nonzero" opacity="1" stroke="none"/>
<path d="M431.967 422.502C430.721 423.747 433.993 430.334 434.052 431.4C434.407 437.784 446.442 435.634 450.151 431.925C448.997 430.77 445.688 431.293 444.368 430.413C443.442 429.795 432.864 436.354 436.096 429.891C434.467 428.262 433.511 424.046 431.967 422.502Z" fill="#848483" fill-rule="nonzero" opacity="1" stroke="none"/>
<path d="M430.273 188.667C427.437 187.612 430.588 194.24 431.726 196.516C434.971 203.004 442.177 212.328 449.168 203.783C450.378 202.304 440.923 204.602 439.866 204.074C432.747 200.514 436.466 190.969 430.273 188.667Z" fill="#d69750" fill-rule="nonzero" opacity="1" stroke="none"/>
<path d="M384.217 218.892C375.219 222.733 374.67 231.339 381.049 236.784L382.294 231.032C382.409 229.567 381.758 227.862 382.222 226.675C383.119 224.378 388.651 221.424 384.217 218.892Z" fill="#1c1c1c" fill-rule="nonzero" opacity="1" stroke="none"/>
<path d="M361.944 322.479C373.604 325.706 373.903 329.811 377.996 332.333C378.077 331.142 378.028 329.642 378.675 327.694C376.954 325.973 362.307 321.316 361.944 322.479Z" fill="#848483" fill-rule="nonzero" opacity="1" stroke="none"/>
<path d="M412.831 423.26C411.53 424.562 412.987 426.492 412.831 428.202C412.421 432.711 407.429 437.507 412.203 439.894C414.233 437.865 418.044 428.453 416.61 425.586C416.154 424.674 414.189 423.842 412.831 423.26Z" fill="#848483" fill-rule="nonzero" opacity="1" stroke="none"/>
<path d="M375.622 361.342C374.053 362.005 374.511 363.987 374.168 365.702C373.564 368.723 369.889 372.661 377.657 370.935C379.82 370.454 377.136 360.701 375.622 361.342Z" fill="#c9c9c9" fill-rule="nonzero" opacity="1" stroke="none"/>
<path d="M373.33 370.985C373.33 370.985 373.275 371.753 373.69 375.706C376.255 378.27 380.061 381.988 383.761 378.288C386.188 377.757 384.924 377.501 384.924 377.501C383.124 375.701 381.987 377.689 380.017 377.689C378.217 377.689 373.33 370.985 373.33 370.985Z" fill="#848483" fill-rule="nonzero" opacity="1" stroke="none"/>
<path d="M359.633 398.26C360.215 398.842 360.215 398.842 360.796 399.423C362.626 398.508 362.601 401.397 364.575 399.423C364.284 398.987 364.284 398.987 363.994 398.551C365.478 397.066 370.563 392.156 364.284 392.156C362.2 392.156 360.849 397.044 359.633 398.26Z" fill="#1c1c1c" fill-rule="nonzero" opacity="1" stroke="none"/>
<path d="M422.133 166.283C423.441 168.026 427.035 170.945 427.366 173.26C427.446 173.818 427.102 182.886 427.292 187.385C427.386 189.631 428.011 188.672 428.094 189.068C428.298 190.045 428.884 176.844 429.33 177.29C430.992 174.007 428.456 171.116 426.203 167.737C425.654 166.913 425.586 165.496 424.459 165.12C423.345 164.749 422.737 165.68 422.133 166.283Z" fill="#1c1c1c" fill-rule="nonzero" opacity="1" stroke="none"/>
<path d="M457.308 219.772C456.436 220.644 456.436 220.644 455.564 221.516C459.272 225.224 475.712 226.963 476.671 223.899C477.629 220.835 477.703 195.264 477.241 195.137C475.983 194.791 474.304 205.082 471.182 210.289C466.132 218.712 458.682 221.833 457.308 219.772Z" fill="#625849" fill-rule="nonzero" opacity="1" stroke="none"/>
<path d="M428.746 393.14L427.939 397.01C427.939 397.01 428.789 404.887 429.408 405.506C430.713 404.854 432.311 404.81 432.311 404.81C432.311 404.81 437.666 404.03 439.702 401.995C437.754 400.047 432.442 402.665 429.692 401.749C429.692 399.959 429.951 394.345 428.746 393.14Z" fill="#3e8da4" fill-rule="nonzero" opacity="1" stroke="none"/>
<path d="M392.482 273.841C389.722 276.601 395.043 286.538 397.009 289.486C398.398 288.097 395.372 279.021 395.372 279.021C395.372 279.021 393.202 274.801 392.482 273.841Z" fill="#a35e04" fill-rule="nonzero" opacity="1" stroke="none"/>
<path d="M391.837 272.809C390.715 273.931 393.827 285.63 393.827 285.63C393.827 285.63 398.957 299.261 400.04 300.344C400.275 300.109 402.099 300.235 401.723 299.482C400.73 297.495 395.318 282.698 395.318 282.698C395.318 282.698 393.041 274.013 391.837 272.809Z" fill="#d69750" fill-rule="nonzero" opacity="1" stroke="none"/>
<path d="M398.587 318.9C395.581 321.905 399.234 327.846 404.692 322.388C403.225 320.433 400.262 320.575 398.587 318.9Z" fill="#283436" fill-rule="nonzero" opacity="1" stroke="none"/>
<path d="M404.11 377.33C401.493 379.947 403.699 382.819 405.273 385.179C406.007 384.444 405.832 383.007 407.017 382.563C409.781 381.526 407.542 383.492 409.052 381.981C407.78 380.71 405.794 378.172 404.11 377.33Z" fill="#848483" fill-rule="nonzero" opacity="1" stroke="none"/>
<path d="M393.708 347.293C394.144 347.002 391.82 343.109 397.988 341.655C393.139 334.876 391.344 343.746 393.708 347.293Z" fill="#625849" fill-rule="nonzero" opacity="1" stroke="none"/>
<path d="M478.529 388.667C479.899 390.723 481.23 393.233 483.471 390.993C481.828 388.529 481.24 385.956 478.529 388.667Z" fill="#1c1c1c" fill-rule="nonzero" opacity="1" stroke="none"/>
<path d="M429.692 397.97C428.185 399.476 428.614 401.543 429.982 402.911C430.808 402.498 431.028 402.738 431.726 402.039C430.271 400.584 430.963 399.241 429.692 397.97Z" fill="#288fbd" fill-rule="nonzero" opacity="1" stroke="none"/>
<path d="M466.61 399.132C464.732 401.011 466.664 403.149 468.645 401.167C467.264 399.441 467.999 400.058 466.61 399.132Z" fill="#1c1c1c" fill-rule="nonzero" opacity="1" stroke="none"/>
<path d="M424.459 181.69C422.766 183.383 423.587 185.178 423.587 185.178C423.85 185.003 425.614 183.96 426.703 188.955C427.792 193.95 437.959 209.575 439.845 206.41C435.753 203.685 429.436 194.878 428.526 187.663C428.274 185.665 425.089 182.32 424.459 181.69Z" fill="#684221" fill-rule="nonzero" opacity="1" stroke="none"/>
<path d="M405.965 299.097C406.148 298.957 403.011 296.616 406.23 297.935C408.225 298.752 408.57 298.083 410.716 299.066C412.861 300.049 411.8 300.854 411.8 300.854C411.8 300.854 409.242 298.631 405.965 299.097Z" fill="#a35e04" fill-rule="nonzero" opacity="1" stroke="none"/>
<path d="M367.773 386.342C367.191 386.923 367.191 386.923 366.61 387.504C367.849 389.156 367.75 388.981 369.226 387.504C368.5 386.923 368.5 386.923 367.773 386.342Z" fill="#1c1c1c" fill-rule="nonzero" opacity="1" stroke="none"/>
<path d="M367.749 386.546C366.788 387.507 367.072 387.614 368.039 388.581C368.476 388.145 368.476 388.145 368.912 387.709C368.465 386.815 368.801 387.248 367.749 386.546Z" fill="#848483" fill-rule="nonzero" opacity="1" stroke="none"/>
</g>
<g opacity="1">
<path d="M405.296 297.308C402.554 300.049 403.992 303.131 405.586 306.319C401.821 310.085 402.628 299.582 401.517 298.47C400.135 299.852 399.796 298.974 398.61 299.924C395.386 302.503 395.655 307.784 395.412 311.552C395.236 314.278 394.932 315.825 395.993 317.947C397.943 321.847 401.388 320.725 403.842 323.18C407.731 320.587 410.712 318.03 411.982 313.587C412.289 312.512 410.677 308.823 410.528 307.482C410.329 305.687 407.852 304.103 407.331 302.54C406.57 300.257 407.755 298.537 405.296 297.308Z" fill="#000000" fill-rule="nonzero" opacity="1" stroke="none"/>
<path d="M400.644 286.842C398.51 288.977 399.342 291.342 397.738 292.947C398.115 293.514 401.459 299.971 401.517 300.214C401.872 301.727 401.23 303.423 401.807 304.866C402.286 306.063 405.169 309.396 406.168 306.901C407.373 303.888 402.192 300.993 405.296 297.889C407.044 299.054 414.074 295.131 412.891 293.061C410.971 289.699 406.684 293.735 404.714 292.947C403.507 292.464 402.415 288.613 400.644 286.842Z" fill="#848483" fill-rule="nonzero" opacity="1" stroke="none"/>
<path d="M398.028 293.238C399.491 291.775 401.919 291.066 403.183 289.591C404.117 288.502 406.595 281.441 407.331 281.9C409.516 283.266 408.04 283.773 409.365 285.098C412.766 281.697 406.612 278.567 403.842 278.994C400.243 279.547 400.842 283.555 399.521 285.404C397.977 287.565 395.139 290.349 398.028 293.238Z" fill="#75706c" fill-rule="nonzero" opacity="1" stroke="none"/>
<path d="M417.214 285.098C415.457 285.684 413.42 287.133 411.4 287.133C408.268 287.133 410.303 279.781 406.458 281.319C402.776 282.792 401.362 290.821 403.842 292.947C405.957 294.76 412.079 293.722 412.854 294.11C413.865 293.098 426.526 289.562 427.006 291.243C428.355 295.965 420.57 294.973 415.47 295.273C414.137 295.351 412.581 299.942 413.435 300.796C417.211 298.279 426.013 302.965 423.61 307.773C425.026 309.189 424.494 309.876 425.594 311.343C426.925 311.029 427.851 310.467 428.73 309.588C425.541 303.211 429.507 294.193 434.656 290.331C436.058 289.28 438.19 286.811 440.179 288.005C442.693 289.513 439.945 294.989 439.598 296.726C438.826 300.587 438.743 314.47 443.086 317.366C442.76 318.346 442.386 319.349 441.924 320.273C443.059 321.408 444.354 321.54 445.412 322.598C450.03 319.52 452.601 328.2 456.459 324.342C454.206 322.09 452.587 320.372 450.063 319.11C449.402 318.779 448.063 318.955 447.447 318.528C442.943 315.41 441.924 307.109 441.924 301.959C441.924 298.467 442.906 298.157 443.377 295.563C444.032 291.962 443.961 286.491 447.156 283.935C448.278 283.038 475.458 276.67 478.244 273.884C477.448 272.29 477.964 269.688 475.063 267.947C474.699 267.728 473.281 268.377 473.028 268.528C470.604 269.983 422.789 283.24 417.214 285.098Z" fill="#1c1c1c" fill-rule="nonzero" opacity="1" stroke="none"/>
<path d="M487.484 258.063C480.606 261.385 483.212 263.981 480.605 269.016C482.202 270.559 485.065 272.268 486.783 273.928C489.383 272.254 488.96 270.979 486.867 267.947C487.896 266.623 488.767 266.618 489.877 265.331C491.12 263.89 488.646 259.186 487.484 258.063Z" fill="#1c1c1c" fill-rule="nonzero" opacity="1" stroke="none"/>
<path d="M479.133 266.784C480.521 268.172 481.621 269.304 482.912 270.854C483.948 269.818 483.215 268.54 482.331 267.656C485.125 262.067 480.891 263.124 487.85 258.485C486.677 256.725 484.766 257.191 482.331 257.191C477.469 257.191 481.574 264.343 479.133 266.784Z" fill="#625849" fill-rule="nonzero" opacity="1" stroke="none"/>
<path d="M476.702 274.855C477.977 276.13 479.955 277.12 480.962 278.629C482.748 276.843 485.912 275.583 487.959 277.63C489.777 275.812 490.071 271.908 488.145 269.982C487.177 270.95 486.469 271.367 485.528 272.307C481.599 269.688 480.833 264.558 476.085 267.723C475.637 268.022 474.474 267.314 474.331 268.455C474.072 270.53 477.446 273.367 476.702 274.855Z" fill="#75706c" fill-rule="nonzero" opacity="1" stroke="none"/>
</g>
</g>
<g opacity="1">
<path d="M341.366 175.408C341.366 155.279 357.683 138.961 377.812 138.961C397.941 138.961 414.259 155.279 414.259 175.408C414.259 195.537 397.941 211.855 377.812 211.855C357.683 211.855 341.366 195.537 341.366 175.408Z" fill="#0165b2" fill-rule="nonzero" opacity="1" stroke="none"/>
</g>
</g>
</svg>
