<!-- All credits to Mariya-Laurel Ivakhnenko that created this SVG -->
<?xml version="1.0" encoding="UTF-8" standalone="no"?>
<!DOCTYPE svg PUBLIC "-//W3C//DTD SVG 1.1//EN" "http://www.w3.org/Graphics/SVG/1.1/DTD/svg11.dtd">
<!-- Created with Vectornator (http://vectornator.io/) -->
<svg height="100%" stroke-miterlimit="10" style="fill-rule:nonzero;clip-rule:evenodd;stroke-linecap:round;stroke-linejoin:round;" version="1.1" viewBox="0 0 841.995 595.35" width="100%" xml:space="preserve" xmlns="http://www.w3.org/2000/svg" xmlns:xlink="http://www.w3.org/1999/xlink">
<defs>
<filter color-interpolation-filters="sRGB" filterUnits="userSpaceOnUse" height="77.6661" id="Filter" width="1.14645" x="420.424" y="258.842">
<feGaussianBlur in="SourceGraphic" result="Blur" stdDeviation="0.00617408"/>
</filter>
<filter color-interpolation-filters="sRGB" filterUnits="userSpaceOnUse" height="55.254" id="Filter_2" width="55.254" x="393.37" y="270.048">
<feGaussianBlur in="SourceGraphic" result="Blur" stdDeviation="0.00617408"/>
</filter>
<filter color-interpolation-filters="sRGB" filterUnits="userSpaceOnUse" height="71.7982" id="Filter_3" width="30.5334" x="405.731" y="261.776">
<feGaussianBlur in="SourceGraphic" result="Blur" stdDeviation="0.00617408"/>
</filter>
<filter color-interpolation-filters="sRGB" filterUnits="userSpaceOnUse" height="71.7982" id="Filter_4" width="30.5334" x="405.731" y="261.776">
<feGaussianBlur in="SourceGraphic" result="Blur" stdDeviation="0.00617408"/>
</filter>
<filter color-interpolation-filters="sRGB" filterUnits="userSpaceOnUse" height="30.325" id="Filter_5" width="71.8845" x="385.055" y="282.512">
<feGaussianBlur in="SourceGraphic" result="Blur" stdDeviation="0.00617408"/>
</filter>
<filter color-interpolation-filters="sRGB" filterUnits="userSpaceOnUse" height="30.325" id="Filter_6" width="71.8845" x="385.055" y="282.512">
<feGaussianBlur in="SourceGraphic" result="Blur" stdDeviation="0.00617408"/>
</filter>
<filter color-interpolation-filters="sRGB" filterUnits="userSpaceOnUse" height="55.254" id="Filter_7" width="55.254" x="393.37" y="270.048">
<feGaussianBlur in="SourceGraphic" result="Blur" stdDeviation="0.00617408"/>
</filter>
<filter color-interpolation-filters="sRGB" filterUnits="userSpaceOnUse" height="1.14645" id="Filter_8" width="77.6661" x="382.164" y="297.102">
<feGaussianBlur in="SourceGraphic" result="Blur" stdDeviation="0.00617408"/>
</filter>
<filter color-interpolation-filters="sRGB" filterUnits="userSpaceOnUse" height="24.8287" id="Filter_9" width="32.137" x="405.225" y="284.489">
<feGaussianBlur in="SourceGraphic" result="Blur" stdDeviation="0.0274165"/>
</filter>
</defs>
<g id="Calque-1">
<g opacity="1">
<path d="M280.998 87.675L560.997 87.675L560.997 507.675L280.998 507.675L280.998 87.675Z" fill="#f1d244" fill-rule="nonzero" opacity="1" stroke="none"/>
<path d="M280.998 87.675L560.997 87.675L560.997 507.675L280.998 507.675L280.998 87.675Z" fill="none" opacity="1" stroke="#000000" stroke-linecap="butt" stroke-linejoin="round" stroke-width="10"/>
<path d="M291.987 98.6875L549.987 98.6875L549.987 496.688L291.987 496.688L291.987 98.6875Z" fill="#000000" fill-rule="nonzero" opacity="1" stroke="none"/>
</g>
<g opacity="1">
<g opacity="1">
<path d="M459.413 405.18L513.165 405.18C514.694 405.18 516.223 404.595 517.394 403.436C519.723 401.107 519.723 397.32 517.394 394.991C515.423 393.02 459.64 337.237 457.669 335.266C455.34 332.937 451.553 332.937 449.224 335.266C448.053 336.425 447.468 337.953 447.468 339.482L447.468 339.482L447.468 393.235L459.413 405.18Z" fill="#000000" fill-rule="nonzero" opacity="1" stroke="#ffffff" stroke-linecap="round" stroke-linejoin="miter" stroke-width="23.89"/>
<path d="M471.358 393.235C471.358 386.638 466.01 381.29 459.413 381.29C452.816 381.29 447.468 386.638 447.468 393.235C447.468 399.832 452.816 405.18 459.413 405.18C466.01 405.18 471.358 399.832 471.358 393.235ZM387.743 190.17L333.991 190.17C332.462 190.17 330.933 190.755 329.762 191.914C327.433 194.243 327.433 198.03 329.762 200.359C331.733 202.33 387.516 258.113 389.487 260.084C391.816 262.413 395.603 262.413 397.932 260.084C399.103 258.925 399.688 257.397 399.688 255.868L399.688 255.868L399.688 202.115L387.743 190.17Z" fill="#000000" fill-rule="nonzero" opacity="1" stroke="#ffffff" stroke-linecap="round" stroke-linejoin="miter" stroke-width="23.89"/>
<path d="M399.688 202.115C399.688 195.518 394.34 190.17 387.743 190.17C381.146 190.17 375.798 195.518 375.798 202.115C375.798 208.712 381.146 214.06 387.743 214.06C394.34 214.06 399.688 208.712 399.688 202.115Z" fill="#000000" fill-rule="nonzero" opacity="1" stroke="#ffffff" stroke-linecap="round" stroke-linejoin="miter" stroke-width="23.89"/>
<path d="M469.722 381.29C499.178 365.033 519.138 333.713 519.138 297.675C519.138 248.951 482.646 208.828 435.523 202.939M364.462 222.66C342.269 240.136 328.018 267.227 328.018 297.675C328.018 346.399 364.51 386.522 411.633 392.411" fill="none" opacity="1" stroke="#ffffff" stroke-linecap="round" stroke-linejoin="miter" stroke-width="23.89"/>
</g>
<path d="M322.854 192.307L395.679 261.701L395.481 190.424L322.854 192.307Z" fill="#ffffff" fill-rule="nonzero" opacity="1" stroke="none"/>
<path d="M519.141 403.297L446.316 333.903L446.514 405.18L519.141 403.297Z" fill="#ffffff" fill-rule="nonzero" opacity="1" stroke="none"/>
</g>
<g opacity="1">
<path d="M377.683 297.675C377.683 273.753 397.076 254.361 420.998 254.361C444.919 254.361 464.312 273.753 464.312 297.675C464.312 321.597 444.919 340.989 420.998 340.989C397.076 340.989 377.683 321.597 377.683 297.675Z" fill="#fddf19" fill-rule="nonzero" opacity="1" stroke="none"/>
<g opacity="1">
<path d="M420.997 335.935L420.997 259.415" fill="none" filter="url(#Filter)" opacity="1" stroke="#000000" stroke-linecap="butt" stroke-linejoin="round" stroke-width="1.11558"/>
<path d="M393.944 270.621L448.051 324.729" fill="none" filter="url(#Filter_2)" opacity="1" stroke="#000000" stroke-linecap="butt" stroke-linejoin="round" stroke-width="1.11558"/>
<path d="M406.304 333.001L435.691 262.349" fill="none" filter="url(#Filter_3)" opacity="1" stroke="#000000" stroke-linecap="butt" stroke-linejoin="round" stroke-width="1.11558"/>
<path d="M435.691 333.001L406.304 262.349" fill="none" filter="url(#Filter_4)" opacity="1" stroke="#000000" stroke-linecap="butt" stroke-linejoin="round" stroke-width="1.11558"/>
<path d="M385.628 312.264L456.367 283.086" fill="none" filter="url(#Filter_5)" opacity="1" stroke="#000000" stroke-linecap="butt" stroke-linejoin="round" stroke-width="1.11558"/>
<path d="M456.367 312.264L385.628 283.086" fill="none" filter="url(#Filter_6)" opacity="1" stroke="#000000" stroke-linecap="butt" stroke-linejoin="round" stroke-width="1.11558"/>
<path d="M393.944 324.729L448.051 270.621" fill="none" filter="url(#Filter_7)" opacity="1" stroke="#000000" stroke-linecap="butt" stroke-linejoin="round" stroke-width="1.11558"/>
<path d="M382.738 297.675L459.257 297.675" fill="none" filter="url(#Filter_8)" opacity="1" stroke="#000000" stroke-linecap="butt" stroke-linejoin="round" stroke-width="1.11558"/>
</g>
<path d="M381.474 297.675C381.474 275.847 399.169 258.152 420.997 258.152C442.826 258.152 460.521 275.847 460.521 297.675C460.521 319.503 442.826 337.198 420.997 337.198C399.169 337.198 381.474 319.503 381.474 297.675Z" fill="none" opacity="0.999922" stroke="#000000" stroke-linecap="butt" stroke-linejoin="round" stroke-width="4.69177"/>
</g>
<path d="M392.147 297.675C392.147 281.741 405.064 268.825 420.998 268.825C436.931 268.825 449.848 281.741 449.848 297.675C449.848 313.609 436.931 326.525 420.998 326.525C405.064 326.525 392.147 313.609 392.147 297.675Z" fill="#fddf19" fill-rule="nonzero" opacity="0.761628" stroke="none"/>
<g fill="#000000" filter="url(#Filter_9)" opacity="1" stroke="none">
<path d="M409.376 290.217L405.294 290.217L405.294 284.558L406.753 284.558L406.753 289.122L409.376 289.122L409.376 290.217Z"/>
<path d="M414.381 288.336L411.249 288.336C411.27 288.67 411.397 288.926 411.631 289.103C411.866 289.281 412.211 289.369 412.667 289.369C412.956 289.369 413.236 289.317 413.507 289.213C413.778 289.11 413.992 288.998 414.149 288.879L414.301 288.879L414.301 289.977C413.992 290.101 413.701 290.191 413.427 290.247C413.153 290.303 412.851 290.331 412.519 290.331C411.662 290.331 411.006 290.138 410.55 289.753C410.094 289.368 409.866 288.819 409.866 288.107C409.866 287.403 410.082 286.845 410.514 286.433C410.946 286.022 411.538 285.816 412.291 285.816C412.985 285.816 413.507 285.991 413.856 286.342C414.206 286.693 414.381 287.198 414.381 287.857L414.381 288.336ZM413.02 287.534C413.013 287.247 412.942 287.032 412.807 286.888C412.673 286.743 412.464 286.671 412.18 286.671C411.917 286.671 411.7 286.739 411.531 286.876C411.361 287.013 411.266 287.232 411.246 287.534L413.02 287.534Z"/>
<path d="M422.51 285.652L420.743 285.652L420.743 290.217L419.283 290.217L419.283 285.652L417.516 285.652L417.516 284.558L422.51 284.558L422.51 285.652Z"/>
<path d="M427.675 288.085C427.675 288.787 427.47 289.339 427.061 289.744C426.652 290.148 426.077 290.35 425.338 290.35C424.598 290.35 424.023 290.148 423.614 289.744C423.205 289.339 423 288.787 423 288.085C423 287.378 423.206 286.823 423.618 286.42C424.03 286.017 424.603 285.816 425.338 285.816C426.083 285.816 426.658 286.019 427.065 286.424C427.472 286.829 427.675 287.383 427.675 288.085ZM425.991 289.122C426.08 289.013 426.146 288.882 426.191 288.729C426.235 288.576 426.257 288.363 426.257 288.092C426.257 287.841 426.235 287.631 426.189 287.461C426.143 287.292 426.08 287.156 425.999 287.055C425.918 286.951 425.82 286.877 425.706 286.834C425.592 286.791 425.469 286.77 425.338 286.77C425.206 286.77 425.089 286.787 424.986 286.823C424.883 286.858 424.785 286.929 424.692 287.036C424.608 287.135 424.541 287.27 424.492 287.442C424.443 287.615 424.418 287.831 424.418 288.092C424.418 288.325 424.439 288.527 424.483 288.698C424.526 288.869 424.589 289.007 424.673 289.111C424.754 289.21 424.851 289.282 424.963 289.327C425.076 289.373 425.205 289.396 425.349 289.396C425.473 289.396 425.592 289.375 425.704 289.333C425.817 289.291 425.913 289.221 425.991 289.122Z"/>
<path d="M432.908 290.217L431.54 290.217L431.54 289.745C431.287 289.938 431.055 290.084 430.845 290.184C430.634 290.285 430.383 290.335 430.092 290.335C429.621 290.335 429.258 290.199 429.003 289.928C428.749 289.657 428.621 289.257 428.621 288.727L428.621 285.949L429.997 285.949L429.997 288.066C429.997 288.281 430.004 288.46 430.018 288.603C430.032 288.747 430.064 288.865 430.115 288.959C430.163 289.053 430.236 289.121 430.333 289.164C430.431 289.207 430.567 289.229 430.742 289.229C430.858 289.229 430.988 289.207 431.13 289.164C431.271 289.121 431.408 289.058 431.54 288.974L431.54 285.949L432.908 285.949L432.908 290.217Z"/>
<path d="M437.294 287.252L437.172 287.252C437.114 287.232 437.02 287.217 436.891 287.207C436.762 287.197 436.654 287.192 436.568 287.192C436.373 287.192 436.201 287.204 436.051 287.23C435.902 287.255 435.741 287.298 435.568 287.359L435.568 290.217L434.2 290.217L434.2 285.949L435.568 285.949L435.568 286.576C435.87 286.317 436.132 286.146 436.355 286.061C436.578 285.976 436.783 285.934 436.971 285.934C437.019 285.934 437.073 285.935 437.134 285.937C437.195 285.94 437.248 285.944 437.294 285.949L437.294 287.252Z"/>
<path d="M420.488 299.676L419.12 299.676L419.12 299.231C418.884 299.424 418.664 299.566 418.459 299.657C418.254 299.748 418.017 299.794 417.748 299.794C417.229 299.794 416.813 299.594 416.502 299.193C416.19 298.793 416.034 298.253 416.034 297.574C416.034 297.212 416.087 296.891 416.192 296.611C416.297 296.331 416.441 296.091 416.623 295.891C416.795 295.701 417.004 295.553 417.25 295.448C417.496 295.343 417.742 295.29 417.988 295.29C418.243 295.29 418.453 295.318 418.617 295.372C418.78 295.427 418.948 295.496 419.12 295.579L419.12 293.763L420.488 293.763L420.488 299.676ZM419.12 298.498L419.12 296.404C419.024 296.363 418.922 296.334 418.816 296.317C418.71 296.299 418.612 296.29 418.523 296.29C418.164 296.29 417.894 296.402 417.714 296.626C417.534 296.85 417.444 297.161 417.444 297.559C417.444 297.977 417.516 298.281 417.661 298.469C417.805 298.658 418.037 298.753 418.356 298.753C418.48 298.753 418.612 298.729 418.751 298.682C418.891 298.635 419.014 298.574 419.12 298.498Z"/>
<path d="M425.984 297.795L422.852 297.795C422.872 298.129 423 298.385 423.234 298.563C423.468 298.74 423.814 298.829 424.27 298.829C424.559 298.829 424.839 298.777 425.11 298.673C425.381 298.569 425.595 298.457 425.752 298.338L425.904 298.338L425.904 299.437C425.595 299.561 425.303 299.651 425.03 299.707C424.756 299.762 424.453 299.79 424.121 299.79C423.265 299.79 422.609 299.598 422.153 299.212C421.697 298.827 421.469 298.279 421.469 297.567C421.469 296.863 421.685 296.304 422.117 295.893C422.549 295.481 423.141 295.275 423.893 295.275C424.588 295.275 425.11 295.451 425.459 295.802C425.809 296.152 425.984 296.657 425.984 297.316L425.984 297.795ZM424.623 296.993C424.616 296.707 424.545 296.491 424.41 296.347C424.276 296.202 424.067 296.13 423.783 296.13C423.52 296.13 423.303 296.199 423.133 296.336C422.964 296.472 422.869 296.691 422.848 296.993L424.623 296.993Z"/>
<path d="M411.063 304.571L408.46 304.571L408.46 305.624L410.873 305.624L410.873 306.718L408.46 306.718L408.46 309.135L407.008 309.135L407.008 303.477L411.063 303.477L411.063 304.571Z"/>
<path d="M415.088 306.171L414.966 306.171C414.908 306.151 414.814 306.136 414.685 306.126C414.556 306.115 414.448 306.11 414.362 306.11C414.167 306.11 413.995 306.123 413.845 306.148C413.696 306.174 413.535 306.217 413.362 306.278L413.362 309.135L411.994 309.135L411.994 304.868L413.362 304.868L413.362 305.495C413.664 305.236 413.926 305.065 414.149 304.98C414.372 304.895 414.577 304.852 414.765 304.852C414.813 304.852 414.867 304.854 414.928 304.856C414.989 304.859 415.042 304.862 415.088 304.868L415.088 306.171Z"/>
<path d="M418.447 308.022L418.447 307.133C418.262 307.148 418.062 307.169 417.847 307.195C417.632 307.222 417.468 307.253 417.357 307.288C417.22 307.332 417.115 307.394 417.043 307.477C416.971 307.559 416.935 307.667 416.935 307.802C416.935 307.89 416.942 307.962 416.958 308.018C416.973 308.074 417.011 308.127 417.072 308.178C417.13 308.228 417.2 308.266 417.281 308.29C417.362 308.314 417.488 308.326 417.661 308.326C417.798 308.326 417.936 308.298 418.077 308.242C418.217 308.187 418.341 308.113 418.447 308.022ZM418.447 308.683C418.374 308.739 418.283 308.806 418.174 308.885C418.065 308.963 417.962 309.025 417.866 309.071C417.732 309.132 417.592 309.177 417.448 309.206C417.303 309.235 417.145 309.249 416.973 309.249C416.567 309.249 416.228 309.124 415.954 308.873C415.681 308.622 415.544 308.302 415.544 307.912C415.544 307.6 415.614 307.345 415.753 307.148C415.892 306.95 416.09 306.794 416.346 306.68C416.599 306.566 416.913 306.485 417.288 306.437C417.663 306.389 418.052 306.354 418.455 306.331L418.455 306.308C418.455 306.072 418.359 305.91 418.166 305.82C417.974 305.73 417.69 305.685 417.315 305.685C417.089 305.685 416.849 305.725 416.593 305.804C416.337 305.884 416.153 305.946 416.042 305.989L415.916 305.989L415.916 304.959C416.061 304.921 416.296 304.876 416.621 304.824C416.947 304.772 417.273 304.746 417.6 304.746C418.378 304.746 418.94 304.866 419.285 305.105C419.631 305.345 419.804 305.72 419.804 306.232L419.804 309.135L418.447 309.135L418.447 308.683Z"/>
<path d="M425.349 309.135L423.973 309.135L423.973 307.019C423.973 306.846 423.964 306.675 423.947 306.504C423.929 306.333 423.899 306.207 423.855 306.126C423.805 306.032 423.731 305.963 423.633 305.92C423.536 305.877 423.399 305.856 423.225 305.856C423.1 305.856 422.974 305.876 422.846 305.916C422.718 305.957 422.58 306.022 422.43 306.11L422.43 309.135L421.062 309.135L421.062 304.868L422.43 304.868L422.43 305.339C422.674 305.149 422.907 305.003 423.131 304.902C423.356 304.8 423.605 304.75 423.878 304.75C424.339 304.75 424.7 304.884 424.959 305.153C425.219 305.421 425.349 305.823 425.349 306.357L425.349 309.135Z"/>
<path d="M428.83 309.249C428.458 309.249 428.118 309.205 427.81 309.116C427.502 309.028 427.234 308.891 427.006 308.706C426.781 308.521 426.606 308.288 426.482 308.007C426.357 307.726 426.295 307.396 426.295 307.019C426.295 306.621 426.362 306.278 426.495 305.989C426.628 305.7 426.813 305.46 427.052 305.27C427.282 305.091 427.548 304.959 427.85 304.875C428.151 304.792 428.464 304.75 428.788 304.75C429.08 304.75 429.348 304.781 429.594 304.845C429.84 304.908 430.069 304.99 430.282 305.092L430.282 306.259L430.088 306.259C430.035 306.213 429.971 306.16 429.896 306.099C429.822 306.038 429.73 305.979 429.621 305.92C429.517 305.865 429.403 305.818 429.279 305.782C429.155 305.745 429.01 305.726 428.845 305.726C428.481 305.726 428.2 305.842 428.004 306.074C427.807 306.306 427.709 306.621 427.709 307.019C427.709 307.429 427.81 307.741 428.011 307.954C428.213 308.166 428.498 308.273 428.868 308.273C429.041 308.273 429.196 308.253 429.334 308.214C429.472 308.175 429.587 308.128 429.678 308.075C429.764 308.024 429.84 307.971 429.906 307.916C429.972 307.86 430.032 307.805 430.088 307.752L430.282 307.752L430.282 308.919C430.067 309.02 429.842 309.101 429.607 309.16C429.373 309.22 429.114 309.249 428.83 309.249Z"/>
<path d="M435.39 307.254L432.258 307.254C432.279 307.589 432.406 307.845 432.64 308.022C432.875 308.199 433.22 308.288 433.676 308.288C433.965 308.288 434.245 308.236 434.516 308.132C434.787 308.028 435.001 307.917 435.158 307.798L435.31 307.798L435.31 308.896C435.001 309.02 434.71 309.11 434.436 309.166C434.162 309.222 433.86 309.249 433.528 309.249C432.671 309.249 432.015 309.057 431.559 308.672C431.103 308.287 430.875 307.738 430.875 307.026C430.875 306.322 431.091 305.764 431.523 305.352C431.955 304.94 432.547 304.735 433.3 304.735C433.994 304.735 434.516 304.91 434.865 305.261C435.215 305.612 435.39 306.117 435.39 306.775L435.39 307.254ZM434.029 306.452C434.022 306.166 433.951 305.951 433.816 305.806C433.682 305.662 433.473 305.59 433.189 305.59C432.926 305.59 432.709 305.658 432.54 305.795C432.37 305.932 432.275 306.151 432.254 306.452L434.029 306.452Z"/>
</g>
</g>
</svg>
